<?xml version="1.0" encoding="UTF-8"?>
<svg version="1.1" xmlns="http://www.w3.org/2000/svg" width="727" height="727">
<path d="M0 0 C239.91 0 479.82 0 727 0 C727 239.91 727 479.82 727 727 C487.09 727 247.18 727 0 727 C0 487.09 0 247.18 0 0 Z " fill="#F4B800" transform="translate(0,0)"/>
<path d="M0 0 C3.01559117 1.40380968 5.90895716 2.97804603 8.7890625 4.63671875 C9.47734131 5.02827148 10.16562012 5.41982422 10.87475586 5.82324219 C18.17692177 9.99317792 25.42670754 14.25437658 32.68286133 18.50366211 C39.74555009 22.6327464 46.84603519 26.68855782 53.9765625 30.69921875 C61.26127693 34.79690889 68.50281115 38.95395827 75.69360352 43.21411133 C81.23650992 46.49255781 86.81900572 49.69819271 92.4140625 52.88671875 C105.2705489 60.21481116 118.07438391 67.63062916 130.85107422 75.09692383 C131.86186035 75.68755615 132.87264648 76.27818848 133.9140625 76.88671875 C134.91711426 77.47283936 135.92016602 78.05895996 136.95361328 78.6628418 C144.72703127 83.19869061 152.52997172 87.68097056 160.35302734 92.13061523 C161.16078613 92.59024658 161.96854492 93.04987793 162.80078125 93.5234375 C163.50162842 93.92135498 164.20247559 94.31927246 164.92456055 94.72924805 C165.62234619 95.13183838 166.32013184 95.53442871 167.0390625 95.94921875 C167.8962941 96.34016818 168.7535257 96.73111761 169.63673401 97.13391399 C172.0390625 98.94921875 172.0390625 98.94921875 172.63360596 101.74680042 C172.61242706 103.46309666 172.61242706 103.46309666 172.59082031 105.21406555 C172.58732071 106.52739365 172.58382111 107.84072174 172.58021545 109.19384766 C172.55122778 110.65308327 172.52187271 112.11231162 172.4921875 113.5715332 C172.47935878 115.10587323 172.46891386 116.64023477 172.4606781 118.17460632 C172.43894697 121.48317366 172.40254513 124.7911475 172.3555603 128.09945107 C172.28349761 133.34170234 172.257968 138.58353431 172.24145508 143.82621765 C172.18821431 158.73577237 172.087981 173.64441987 171.90576172 188.55297852 C171.80555268 196.78438655 171.75253237 205.01475209 171.75023079 213.24678391 C171.7468396 217.59910787 171.71914334 221.94821642 171.63220215 226.29973793 C170.3060524 246.38975456 170.3060524 246.38975456 177.60144806 264.15608501 C180.23961674 266.73204163 183.03430375 268.80942298 186.0390625 270.94921875 C188.20880127 273.42308044 188.20880127 273.42308044 189.73046875 275.515625 C190.21362549 276.17425537 190.69678223 276.83288574 191.19458008 277.51147461 C191.65888428 278.17155518 192.12318848 278.83163574 192.6015625 279.51171875 C193.12838623 280.25365479 193.65520996 280.99559082 194.19799805 281.76000977 C207.61896141 301.04226731 218.09991387 322.17634504 224.0390625 344.94921875 C224.23516113 345.67641113 224.43125977 346.40360352 224.63330078 347.15283203 C227.71518117 359.02424538 228.41047799 370.74019618 228.4140625 382.94921875 C228.41596588 383.64723602 228.41786926 384.3452533 228.41983032 385.06442261 C228.41298999 407.20136377 228.41298999 407.20136377 225.0390625 413.94921875 C188.17006442 424.86016015 145.90277924 411.79660228 113.37158203 394.66259766 C100.67415342 387.7491437 89.11988492 379.20592544 78.0390625 369.94921875 C77.69875 371.12484375 77.69875 371.12484375 77.3515625 372.32421875 C72.2920245 386.29818085 64.1179541 399.26109948 55.0390625 410.94921875 C54.38550781 411.81289063 53.73195313 412.6765625 53.05859375 413.56640625 C38.70079344 432.09832995 20.55684132 450.94799761 -0.9609375 460.94921875 C-31.53886244 441.18292179 -55.97094146 416.33098398 -72.92089844 383.93066406 C-74.43787885 381.04056712 -76.01323244 378.18434748 -77.5859375 375.32421875 C-78.37837699 373.86630521 -79.17040574 372.4081676 -79.9609375 370.94921875 C-80.95609375 371.7484375 -81.95125 372.54765625 -82.9765625 373.37109375 C-122.60181071 404.71342409 -168.01266487 421.13111266 -218.71704102 415.37573242 C-221.5678008 414.83386784 -224.22655146 413.91013425 -226.9609375 412.94921875 C-228.73066651 403.34825974 -229.40156454 393.95345605 -229.3984375 384.19921875 C-229.399505 383.48466522 -229.40057251 382.77011169 -229.40167236 382.03390503 C-229.31041126 339.34800487 -210.75530818 298.80244991 -182.9609375 266.94921875 C-181.8810235 265.9989169 -181.8810235 265.9989169 -180.77929306 265.02941704 C-175.75524511 260.28000846 -173.36300526 256.83059921 -172.98199463 249.82913208 C-172.96963127 247.04800254 -173.07001184 244.27903486 -173.18066406 241.50048828 C-173.20776786 239.96192144 -173.23054044 238.42327319 -173.24934387 236.88458252 C-173.29701275 233.58793053 -173.37140584 230.29337851 -173.46604156 226.99774551 C-173.61216099 221.7767255 -173.675368 216.55667602 -173.72381592 211.33395386 C-173.873162 196.49043013 -174.11773694 181.64997343 -174.47802734 166.81005859 C-174.67664612 158.59962939 -174.7990068 150.3915494 -174.83979583 142.17878425 C-174.86498215 137.83978252 -174.92992199 133.50952485 -175.09137726 129.17328262 C-176.04570814 102.85849208 -176.04570814 102.85849208 -170.90891647 96.34873009 C-165.95118685 92.19625905 -160.52270817 89.82168273 -154.42332935 87.80956078 C-151.11581108 86.65393765 -148.42295174 85.04307273 -145.46875 83.171875 C-144.57164307 82.64561523 -143.67453613 82.11935547 -142.75024414 81.57714844 C-141.87102295 81.06055664 -140.99180176 80.54396484 -140.0859375 80.01171875 C-131.14471127 74.77547705 -122.14891532 69.64492871 -113.11816406 64.56494141 C-106.80106075 61.0057186 -100.53332799 57.37361486 -94.29541016 53.67773438 C-88.86069965 50.46308957 -83.3859726 47.3227121 -77.8984375 44.19921875 C-69.32412326 39.31669966 -60.79232245 34.36490691 -52.27539062 29.38305664 C-43.56983017 24.29432947 -34.83648582 19.25466148 -26.08862305 14.23901367 C-21.39637426 11.5417309 -16.72267719 8.83119533 -12.12890625 5.96875 C-11.08295288 5.31966675 -11.08295288 5.31966675 -10.01586914 4.6574707 C-8.24290031 3.5474868 -6.48028726 2.42100653 -4.71875 1.29296875 C-1.9609375 -0.05078125 -1.9609375 -0.05078125 0 0 Z " fill="#262523" transform="translate(378.9609375,136.05078125)"/>
<path d="M0 0 C2.53311895 1.02825686 4.85341206 2.25822454 7.23510742 3.60302734 C8.2522583 4.17472656 9.26940918 4.74642578 10.31738281 5.33544922 C11.40269287 5.95226562 12.48800293 6.56908203 13.60620117 7.20458984 C15.29314087 8.15688477 15.29314087 8.15688477 17.01416016 9.12841797 C26.73184652 14.62495627 36.40346723 20.19854125 46.04370117 25.82958984 C49.89782236 28.07966776 53.75199121 30.329664 57.60620117 32.57958984 C58.61191162 33.16683838 59.61762207 33.75408691 60.65380859 34.35913086 C71.32665372 40.58671448 82.03197101 46.75760239 92.73950195 52.92529297 C96.06984369 54.84465646 99.39879265 56.76641338 102.72729492 58.68896484 C113.80854392 65.0886828 124.8937897 71.48033107 136.02148438 77.79907227 C137.53444039 78.66038465 139.04049777 79.53400457 140.53719521 80.42326927 C143.01682372 81.87004774 143.01682372 81.87004774 145.64600182 82.96067238 C148.52495115 84.33343428 150.71696407 85.63739601 153.04370117 87.82958984 C154.49186137 92.02539143 154.31149553 96.04254488 154.17895508 100.44433594 C154.18114548 102.34759644 154.18114548 102.34759644 154.18338013 104.28930664 C154.18624237 107.75721171 154.12758789 111.22163744 154.05764055 114.68873549 C153.99499771 118.31604178 153.98924352 121.94343377 153.97738647 125.57119751 C153.94634137 132.43537927 153.86433528 139.29796265 153.76389158 146.16144145 C153.65199924 153.97740856 153.59710649 161.79345328 153.54693723 169.61002231 C153.44249444 185.68414625 153.26667975 201.75666389 153.04370117 217.82958984 C151.28361606 216.71569954 149.52432981 215.60054684 147.76538086 214.48486328 C146.78559265 213.86399841 145.80580444 213.24313354 144.79632568 212.60345459 C142.65818696 211.2255809 140.56509237 209.82386465 138.49682617 208.34521484 C131.1869725 203.17483054 123.67883809 198.9573822 115.60620117 195.07958984 C114.61885986 194.59852783 113.63151855 194.11746582 112.61425781 193.62182617 C108.24229846 191.55276217 104.11258912 189.70172571 99.36401367 188.71630859 C95.05180667 187.78010249 91.31258182 186.94957332 88.04370117 183.82958984 C83.85998231 176.84658273 81.67989643 168.85258756 79.18823242 161.15283203 C72.41499451 141.4861694 59.68722682 124.11291833 47.04370117 107.82958984 C49.08555735 105.61617867 50.91348682 104.23245526 53.63354492 102.95458984 C65.86760994 96.98475109 76.98540293 89.92952968 84.04370117 77.82958984 C84.04370117 76.83958984 84.04370117 75.84958984 84.04370117 74.82958984 C79.42370117 72.51958984 74.80370117 70.20958984 70.04370117 67.82958984 C68.71338867 69.77865234 68.71338867 69.77865234 67.35620117 71.76708984 C59.74371786 81.53259874 47.48787517 88.7350573 35.54760742 91.69677734 C31.13172305 91.86415758 30.06026812 90.90531196 26.85620117 87.95458984 C21.13668382 82.91072976 15.22186685 78.29926837 9.04370117 73.82958984 C7.87581055 72.98267578 7.87581055 72.98267578 6.68432617 72.11865234 C5.99854492 71.65201172 5.31276367 71.18537109 4.60620117 70.70458984 C4.02999023 70.31013672 3.4537793 69.91568359 2.86010742 69.50927734 C0.11110464 68.48061824 -1.15959862 68.86859188 -3.95629883 69.82958984 C-6.78877302 71.47383444 -9.42797665 73.3502288 -12.08129883 75.26708984 C-12.83467529 75.79971436 -13.58805176 76.33233887 -14.36425781 76.88110352 C-19.90268676 80.86808546 -24.70812289 85.16224628 -29.36645508 90.16162109 C-32.43331226 92.13680664 -34.30971056 92.08778598 -37.85742188 91.41430664 C-41.39032059 90.4300921 -44.57651828 89.0061134 -47.83129883 87.32958984 C-48.87012207 86.8020813 -48.87012207 86.8020813 -49.92993164 86.26391602 C-58.11267657 81.93148225 -64.29401872 76.11148611 -69.95629883 68.82958984 C-75.80902139 69.27979927 -80.03850001 71.86798211 -84.95629883 74.82958984 C-83.30366659 83.31810997 -75.56444877 89.84547675 -68.95629883 94.82958984 C-62.22668099 99.29749343 -55.21701673 103.29403289 -47.95629883 106.82958984 C-49.94857803 110.32758501 -52.18767617 113.53279646 -54.62255859 116.73632812 C-63.52162815 128.48453151 -70.72769015 140.94819708 -77.14379883 154.20458984 C-77.56846436 155.08010498 -77.99312988 155.95562012 -78.43066406 156.85766602 C-80.48879419 161.23597256 -82.24363859 165.5232051 -83.57739258 170.17724609 C-87.18625701 182.65098027 -87.18625701 182.65098027 -92.20629883 185.99365234 C-95.57087834 187.36163451 -99.06156207 188.21739451 -102.57446289 189.1171875 C-107.07129512 190.46218098 -111.23957709 192.54051244 -115.45629883 194.57958984 C-116.79144531 195.22045532 -116.79144531 195.22045532 -118.15356445 195.87426758 C-129.8542275 201.60155811 -140.62466831 208.59590126 -151.01489258 216.43115234 C-152.95629883 217.82958984 -152.95629883 217.82958984 -153.95629883 217.82958984 C-153.95629883 174.92958984 -153.95629883 132.02958984 -153.95629883 87.82958984 C-143.56129883 81.88958984 -143.56129883 81.88958984 -132.95629883 75.82958984 C-129.05597165 73.56573021 -125.15877108 71.29842696 -121.26879883 69.01708984 C-105.00883327 59.50929104 -88.69574968 50.09388993 -72.33129883 40.76708984 C-63.94870992 35.9885976 -55.60850977 31.14006192 -47.27954102 26.26879883 C-41.8640503 23.10336335 -36.44204261 19.9497629 -31.00708008 16.81787109 C-30.42716812 16.48369675 -29.84725616 16.1495224 -29.24977112 15.80522156 C-26.45404462 14.19481448 -23.65738939 12.58603869 -20.85986328 10.97875977 C-19.84239014 10.39328369 -18.82491699 9.80780762 -17.77661133 9.20458984 C-16.79982422 8.64513672 -15.82303711 8.08568359 -14.81665039 7.50927734 C-12.89705649 6.38203203 -10.99764623 5.21974819 -9.11938477 4.02490234 C-8.23798828 3.46544922 -7.3565918 2.90599609 -6.44848633 2.32958984 C-5.67617676 1.82427734 -4.90386719 1.31896484 -4.1081543 0.79833984 C-1.95629883 -0.17041016 -1.95629883 -0.17041016 0 0 Z " fill="#F4B800" transform="translate(378.956298828125,157.17041015625)"/>
<path d="M0 0 C-5.09505706 7.07646814 -10.74927431 13.60617218 -16.44628906 20.19628906 C-18.835816 22.97030305 -21.20047589 25.76506407 -23.5625 28.5625 C-24.01197998 29.09447998 -24.46145996 29.62645996 -24.92456055 30.17456055 C-25.83021819 31.24662648 -26.73573622 32.31881038 -27.64111328 33.39111328 C-29.92546186 36.09572289 -32.21289508 38.79772127 -34.5 41.5 C-35.41668126 42.58332099 -36.33334793 43.66665432 -37.25 44.75 C-53.75 64.25 -53.75 64.25 -55.1262207 65.8762207 C-56.03911049 66.95523794 -56.95171012 68.03450073 -57.86401367 69.11401367 C-60.21109837 71.89050961 -62.56369171 74.66203451 -64.92578125 77.42578125 C-65.40917969 77.99296875 -65.89257812 78.56015625 -66.390625 79.14453125 C-67.72371579 80.7083493 -69.05904427 82.27025903 -70.39453125 83.83203125 C-73.41726881 87.43746521 -76.20838118 91.21451905 -79 95 C-78.55720703 94.55197021 -78.11441406 94.10394043 -77.65820312 93.64233398 C-75.60823317 91.57129904 -73.55414567 89.50439303 -71.5 87.4375 C-70.80390625 86.73302734 -70.1078125 86.02855469 -69.390625 85.30273438 C-65.37035472 81.26385173 -61.25992468 77.40938218 -56.94238281 73.69067383 C-53.7583486 70.91925139 -50.69747597 68.01879643 -47.625 65.125 C-42.63757111 60.44813006 -37.61298059 55.82286345 -32.515625 51.265625 C-28.96731202 48.0699394 -25.46422274 44.82624735 -21.95874023 41.58374023 C-17.3178764 37.29112824 -12.66311767 33.01415997 -7.99609375 28.75 C-5.89271774 26.82532403 -3.80427806 24.88567663 -1.72265625 22.9375 C-0.91356812 22.18448608 -0.91356812 22.18448608 -0.08813477 21.41625977 C1.41274939 20.01874166 2.90962589 18.61692306 4.40625 17.21484375 C6.58978654 15.3502877 8.37383521 14.09629993 11 13 C12.46742307 53.38130901 -5.69210303 92.50345799 -32.375 122.125 C-33.75158441 123.57838955 -35.12848817 125.03158626 -36.52099609 126.46972656 C-37.54872275 127.53307926 -38.56940323 128.60326912 -39.58447266 129.67871094 C-66.70005651 158.38744542 -107.49137113 181.74089417 -147.73461914 183.09179688 C-150.76133136 183.13356177 -153.78554054 183.13651665 -156.8125 183.125 C-157.84826172 183.12886719 -158.88402344 183.13273438 -159.95117188 183.13671875 C-160.94310547 183.13542969 -161.93503906 183.13414062 -162.95703125 183.1328125 C-163.85397705 183.13168457 -164.75092285 183.13055664 -165.67504883 183.12939453 C-168 183 -168 183 -171 182 C-177.26274891 149.12056821 -163.13431092 110.74150171 -145.14453125 83.609375 C-117.67223081 43.39057346 -77.13409223 10.97290081 -28.46508789 1.65600586 C-18.92868671 -0.04396575 -9.66531431 -0.33033353 0 0 Z " fill="#FDFDFD" transform="translate(339,352)"/>
<path d="M0 0 C17.30022758 -0.82600556 34.87198074 1.45897524 51 8 C51.74540039 8.29503418 52.49080078 8.59006836 53.25878906 8.89404297 C77.49119967 18.55053234 98.25751296 31.84647491 117 50 C117.79833252 50.75966064 117.79833252 50.75966064 118.61279297 51.53466797 C150.63308931 82.052105 170.39472914 123.62743777 172.15625 167.9296875 C172.20032719 172.78919767 172.07988373 177.24851158 171 182 C145.95460282 190.34846573 110.73241035 177.33436463 88.43603516 166.26367188 C71.50040678 157.47846317 56.73955486 146.17760096 43 133 C42.46342773 132.49065918 41.92685547 131.98131836 41.37402344 131.45654297 C33.42172229 123.87547373 26.28005108 116.02548479 20 107 C19.60248535 106.43039551 19.2049707 105.86079102 18.79541016 105.27392578 C0.10961293 78.01597208 -12.3449497 46.32486476 -11 13 C-7.993182 14.33999498 -6.00237391 15.79845291 -3.75 18.1875 C-1.41185441 20.59441458 0.95157717 22.87972044 3.5 25.0625 C7.55934403 28.56111752 11.46655021 32.21010202 15.375 35.875 C19.54998207 39.78879012 23.73125259 43.6881085 28 47.5 C32.22400134 51.2734412 36.36633784 55.12833772 40.5 59 C45.43666806 63.62315106 50.40715927 68.19900794 55.453125 72.703125 C57.43608283 74.49143667 59.40238351 76.29295304 61.359375 78.109375 C61.94187012 78.64997559 62.52436523 79.19057617 63.12451172 79.74755859 C64.2631047 80.80611659 65.40023082 81.86625529 66.53564453 82.92822266 C69.25214951 85.45350715 71.97426674 87.85129087 75 90 C69.13331045 82.74071242 63.12988254 75.61726175 57.04296875 68.54296875 C52.78379992 63.59129613 48.57247138 58.59933683 44.35888672 53.60888672 C42.07453814 50.90427711 39.78710492 48.20227873 37.5 45.5 C36.58331874 44.41667901 35.66665207 43.33334568 34.75 42.25 C34.29625 41.71375 33.8425 41.1775 33.375 40.625 C32 39 30.625 37.375 29.25 35.75 C28.79616943 35.21366943 28.34233887 34.67733887 27.87475586 34.12475586 C26.95884461 33.04228572 26.04299167 31.95976625 25.12719727 30.87719727 C22.82445016 28.15524784 20.52067062 25.43418493 18.21484375 22.71484375 C15.47251024 19.47997619 12.73520415 16.24089661 10 13 C9.52014648 12.4323291 9.04029297 11.8646582 8.54589844 11.27978516 C7.13208114 9.60542829 5.72179427 7.92816447 4.3125 6.25 C3.48363281 5.26515625 2.65476562 4.2803125 1.80078125 3.265625 C0 1 0 1 0 0 Z " fill="#FDFDFD" transform="translate(418,352)"/>
<path d="M0 0 C4.77348714 2.59012523 9.00586735 5.38065752 13.125 8.9375 C13.67994141 9.41493652 14.23488281 9.89237305 14.80664062 10.38427734 C35.38662121 28.32505523 50.91827523 49.73581208 62.6875 74.375 C63.01468018 75.05820312 63.34186035 75.74140625 63.67895508 76.4453125 C65.51955138 80.46079393 66.25332808 83.5199685 67 88 C23.11 88 -20.78 88 -66 88 C-60.76016572 61.80082859 -41.09481806 37.73321753 -23 19 C-22.46415283 18.43498779 -21.92830566 17.86997559 -21.3762207 17.2878418 C-17.10346389 12.87495464 -12.52010807 9.17751705 -7.5625 5.5625 C-6.83095703 5.02173828 -6.09941406 4.48097656 -5.34570312 3.92382812 C-3.56759719 2.61058649 -1.78576518 1.30279614 0 0 Z " fill="#F2B600" transform="translate(378,246)"/>
<path d="M0 0 C42.57 0 85.14 0 129 0 C128.21666023 3.91669886 127.36886631 6.92676577 125.875 10.5625 C125.50117188 11.49191406 125.12734375 12.42132813 124.7421875 13.37890625 C124.34271156 14.17189873 124.34271156 14.17189873 123.93516541 14.98091125 C122.89211639 17.10888734 122.89211639 17.10888734 122.11476135 19.93742371 C120.54865872 23.89433526 119.1881521 26.14160344 116 29 C108.65507253 31.31475379 100.37531343 30.38819093 92.78515625 30.171875 C90.48592053 30.14948186 88.18662738 30.1324058 85.88731384 30.12042236 C79.84740957 30.0746926 73.81099147 29.95690451 67.77246094 29.82397461 C61.60594855 29.7010177 55.43887035 29.64636974 49.27148438 29.5859375 C37.17946123 29.45739894 25.09002093 29.25271012 13 29 C11.54998924 26.45630991 10.10398155 23.91047926 8.66015625 21.36328125 C8.25236938 20.64885864 7.84458252 19.93443604 7.42443848 19.19836426 C0 6.0749644 0 6.0749644 0 0 Z " fill="#F4B800" transform="translate(314,492)"/>
<path d="M0 0 C1.31605225 -0.03848557 2.63210449 -0.07697113 3.98803711 -0.11662292 C6.77575149 -0.18700696 9.56157268 -0.22185719 12.35009766 -0.23754883 C15.19235486 -0.25921571 18.0188707 -0.34893805 20.85693359 -0.50415039 C43.62932688 -1.72873522 43.62932688 -1.72873522 50.15673828 3.57769775 C54.35301248 8.57382956 57.01702396 14.0958141 59.49316406 20.09268188 C61.05463991 23.44075253 63.17294126 25.7803264 65.625 28.51953125 C65.625 29.17953125 65.625 29.83953125 65.625 30.51953125 C33.615 30.51953125 1.605 30.51953125 -31.375 30.51953125 C-26.87779165 22.64941665 -26.87779165 22.64941665 -25.19140625 20.0546875 C-24.82080078 19.48169922 -24.45019531 18.90871094 -24.06835938 18.31835938 C-23.69517578 17.74537109 -23.32199219 17.17238281 -22.9375 16.58203125 C-22.18825619 15.42743739 -21.43956268 14.27248625 -20.69140625 13.1171875 C-20.13919151 12.30069733 -20.13919151 12.30069733 -19.57582092 11.4677124 C-18.32728081 9.55725212 -18.32728081 9.55725212 -17.5252533 7.47161865 C-13.91622441 -0.36276743 -7.88554036 0.15294365 0 0 Z " fill="#F2B700" transform="translate(361.375,443.48046875)"/>
<path d="M0 0 C3.4923063 1.46351639 5.37492632 3.31722094 7.8125 6.1875 C35.91834922 38.00717269 71.54118522 60.33918111 113 70 C114.00740234 70.24991699 114.00740234 70.24991699 115.03515625 70.50488281 C129.46560606 74.02503799 144.25552015 73.293415 159 73 C159.33 72.01 159.66 71.02 160 70 C160.02717692 72.06242617 160.0464758 74.12495703 160.0625 76.1875 C160.07410156 77.33605469 160.08570313 78.48460937 160.09765625 79.66796875 C160.01192832 82.59300586 159.67849023 85.16316291 159 88 C133.95460282 96.34846573 98.73241035 83.33436463 76.43603516 72.26367188 C59.50040678 63.47846317 44.73955486 52.17760096 31 39 C30.46342773 38.49065918 29.92685547 37.98131836 29.37402344 37.45654297 C17.90167122 26.51974683 8.34039249 14.51236772 0 1 C0 0.67 0 0.34 0 0 Z " fill="#BBBDBF" transform="translate(430,446)"/>
<path d="M0 0 C0 11.58017068 -16.45447347 25.97732988 -24 34 C-24.52980469 34.56380371 -25.05960938 35.12760742 -25.60546875 35.70849609 C-53.14838978 64.77556191 -93.79890568 88.71764919 -134.73461914 90.09179688 C-137.76133136 90.13356177 -140.78554054 90.13651665 -143.8125 90.125 C-144.84826172 90.12886719 -145.88402344 90.13273438 -146.95117188 90.13671875 C-147.94310547 90.13542969 -148.93503906 90.13414062 -149.95703125 90.1328125 C-150.85397705 90.13168457 -151.75092285 90.13055664 -152.67504883 90.12939453 C-155 90 -155 90 -158 89 C-159.32719886 82.03220597 -159.08825381 75.07011089 -159 68 C-158.67 68 -158.34 68 -158 68 C-158 70.31 -158 72.62 -158 75 C-144.60144988 74.56303283 -131.25577562 74.10579923 -118 72 C-117.26394531 71.88317871 -116.52789062 71.76635742 -115.76953125 71.64599609 C-96.70825647 68.46237486 -78.88598104 61.28861085 -62 52 C-61.37963867 51.65888184 -60.75927734 51.31776367 -60.12011719 50.96630859 C-46.02236247 43.09634516 -33.24503848 33.4903336 -21.55078125 22.375 C-19 20 -19 20 -16.37890625 17.921875 C-14.18853249 16.15231196 -12.43989076 14.39245641 -10.625 12.25 C-9.74521484 11.22132813 -9.74521484 11.22132813 -8.84765625 10.171875 C-8.23792969 9.45515625 -7.62820313 8.7384375 -7 8 C-5.68967135 6.49810284 -4.377255 4.99802388 -3.0625 3.5 C-2.18271484 2.49453125 -2.18271484 2.49453125 -1.28515625 1.46875 C-0.86105469 0.9840625 -0.43695313 0.499375 0 0 Z " fill="#BBBDBF" transform="translate(326,445)"/>
<path d="M0 0 C25.41 0 50.82 0 77 0 C73.71669078 4.92496384 70.55889889 8.92780245 66.5625 13.1875 C65.95212891 13.83952393 65.34175781 14.49154785 64.71289062 15.16333008 C57.42010789 22.82694819 49.27590193 30.83164507 40 36 C33.42928502 35.97993675 28.65501894 30.09564306 24 26 C23.49452637 25.55769043 22.98905273 25.11538086 22.46826172 24.65966797 C14.04846989 17.24714364 5.80729482 9.67882471 0 0 Z " fill="#B68A00" transform="translate(340,539)"/>
<path d="M0 0 C8.91 0 17.82 0 27 0 C28.32 4.063125 29.64 8.12625 31 12.3125 C31.41765625 13.59036377 31.8353125 14.86822754 32.265625 16.18481445 C32.75289063 17.69628052 32.75289063 17.69628052 33.25 19.23828125 C33.58515625 20.26993408 33.9203125 21.30158691 34.265625 22.36450195 C35 25 35 25 35 28 C20.81 28 6.62 28 -8 28 C-7.20823008 23.24938048 -6.13270289 19.06252752 -4.5625 14.5625 C-2.89760796 9.73579519 -1.40499596 4.91748588 0 0 Z " fill="#F2B700" transform="translate(365,399)"/>
<path d="M0 0 C6.93 0 13.86 0 21 0 C21 9.57 21 19.14 21 29 C14.07 29 7.14 29 0 29 C0 19.43 0 9.86 0 0 Z " fill="#EDB301" transform="translate(368,352)"/>
<path d="M0 0 C17.49 0 34.98 0 53 0 C48.49579077 5.63026153 48.49579077 5.63026153 45.1015625 8.0078125 C44.37453125 8.51957031 43.6475 9.03132812 42.8984375 9.55859375 C42.14820313 10.07550781 41.39796875 10.59242188 40.625 11.125 C39.51125 11.91197266 39.51125 11.91197266 38.375 12.71484375 C34.37301138 15.507751 30.43415046 17.95888312 26 20 C2.28458498 4.56916996 2.28458498 4.56916996 0 0 Z " fill="#F2B700" transform="translate(352,539)"/>
<path d="M0 0 C0.33 0.66 0.66 1.32 1 2 C0.30322266 3.77172852 0.30322266 3.77172852 -0.8359375 5.87890625 C-1.24070312 6.63494141 -1.64546875 7.39097656 -2.0625 8.16992188 C-2.7121875 9.35424805 -2.7121875 9.35424805 -3.375 10.5625 C-3.80039062 11.35591797 -4.22578125 12.14933594 -4.6640625 12.96679688 C-7.82671904 18.82671904 -7.82671904 18.82671904 -9 20 C-10.99958364 20.04080783 -13.00045254 20.04254356 -15 20 C-10 13.33333333 -5 6.66666667 0 0 Z " fill="#B48901" transform="translate(439,501)"/>
<path d="M0 0 C0.66 0 1.32 0 2 0 C3.12986322 1.62175618 4.17840313 3.30046843 5.1875 5 C8.01432298 9.59655669 11.04769156 13.58982168 14.71484375 17.5390625 C16 19 16 19 16 20 C14.02 20 12.04 20 10 20 C8.51494131 17.41989804 7.03682689 14.83622441 5.5625 12.25 C5.14162109 11.52039063 4.72074219 10.79078125 4.28710938 10.0390625 C3.68286133 8.97558594 3.68286133 8.97558594 3.06640625 7.890625 C2.69459229 7.24125977 2.32277832 6.59189453 1.93969727 5.92285156 C0.9812968 3.96172866 0.4496957 2.13035565 0 0 Z " fill="#B88B01" transform="translate(317,501)"/>
<path d="M0 0 C0.66 0.99 1.32 1.98 2 3 C-2.29 7.29 -6.58 11.58 -11 16 C-11 11.90550719 -9.39563083 10.93669388 -6.625 8 C-4.17025826 5.38160881 -1.99346232 2.99019347 0 0 Z " fill="#3D3D3D" transform="translate(271,432)"/>
<path d="M0 0 C3.24299151 2.38957269 5.50902342 4.2047869 7 8 C3.2047869 6.50902342 1.38957269 4.24299151 -1 1 C-0.67 0.67 -0.34 0.34 0 0 Z " fill="#535353" transform="translate(488,436)"/>
<path d="M0 0 C0.66 0.66 1.32 1.32 2 2 C-0.31 4.31 -2.62 6.62 -5 9 C-5 4.61031544 -2.87194899 3.23094261 0 0 Z " fill="#808080" transform="translate(265,439)"/>
</svg>
